<svg
    xmlns="http://www.w3.org/2000/svg"
    version="1.1"
    viewBox="-5.0 -10.0 110.0 135.0"
>
    <g>
        <path
            fill="rgb(34,197,94)"
            d="m40.145 40.086h3.9492v3.9492h-3.9492z"
        />
        <path
            fill="rgb(34,197,94)"
            d="m40.145
        44.074h3.9492v3.9492h-3.9492z"
        />
        <path
            fill="rgb(34,197,94)"
            d="m48.035 32.184h3.9492v3.9492h-3.9492z"
        />
        <path
            fill="rgb(34,197,94)"
            d="m48.035 63.875h3.9492v3.9492h-3.9492z"
        />
        <path
            fill="rgb(34,197,94)"
            d="m44.109
        36.137h3.9492v3.9492h-3.9492z"
        />
        <path
            fill="rgb(34,197,94)"
            d="m48.035 36.137h3.9492v3.9492h-3.9492z"
        />
        <path
            fill="rgb(34,197,94)"
            d="m51.988 36.137h3.9492v3.9492h-3.9492z"
        />
        <path
            fill="rgb(34,197,94)"
            d="m44.109
        48.023h3.9492v3.9492h-3.9492z"
        />
        <path
            fill="rgb(34,197,94)"
            d="m48.035 48.023h3.9492v3.9492h-3.9492z"
        />
        <path
            fill="rgb(34,197,94)"
            d="m51.988 48.023h3.9492v3.9492h-3.9492z"
        />
        <path
            fill="rgb(34,197,94)"
            d="m40.145
        55.961h3.9492v3.9492h-3.9492z"
        />
        <path
            fill="rgb(34,197,94)"
            d="m44.109 59.914h3.9492v3.9492h-3.9492z"
        />
        <path
            fill="rgb(34,197,94)"
            d="m48.035 59.914h3.9492v3.9492h-3.9492z"
        />
        <path
            fill="rgb(34,197,94)"
            d="m51.988
        59.914h3.9492v3.9492h-3.9492z"
        />
        <path
            fill="rgb(34,197,94)"
            d="m55.926 40.086h3.9492v3.9492h-3.9492z"
        />
        <path
            fill="rgb(34,197,94)"
            d="m55.926 52.012h3.9492v3.9492h-3.9492z"
        />
        <path
            fill="rgb(34,197,94)"
            d="m55.926
        55.961h3.9492v3.9492h-3.9492z"
        />
        <path
            fill="rgb(34,197,94)"
            d="m48.012 8.5273h3.9492v3.9492h-3.9492z"
        />
        <path
            fill="rgb(34,197,94)"
            d="m59.867 12.477h3.9492v3.9492h-3.9492z"
        />
        <path
            fill="rgb(34,197,94)"
            d="m63.805
        12.477h3.9492v3.9492h-3.9492z"
        />
        <path
            fill="rgb(34,197,94)"
            d="m67.758 16.426h3.9492v3.9492h-3.9492z"
        />
        <path
            fill="rgb(34,197,94)"
            d="m71.684 16.426h3.9492v3.9492h-3.9492z"
        />
        <path
            fill="rgb(34,197,94)"
            d="m75.684
        20.379h3.9492v3.9492h-3.9492z"
        />
        <path
            fill="rgb(34,197,94)"
            d="m24.328 16.426h3.9492v3.9492h-3.9492z"
        />
        <path
            fill="rgb(34,197,94)"
            d="m20.379 20.379h3.9492v3.9492h-3.9492z"
        />
        <path
            fill="rgb(34,197,94)"
            d="m16.426
        24.328h3.9492v3.9492h-3.9492z"
        />
        <path
            fill="rgb(34,197,94)"
            d="m16.426 28.281h3.9492v3.9492h-3.9492z"
        />
        <path
            fill="rgb(34,197,94)"
            d="m12.488 32.23h3.9492v3.9492h-3.9492z"
        />
        <path
            fill="rgb(34,197,94)"
            d="m12.488
        36.184h3.9492v3.9492h-3.9492z"
        />
        <path
            fill="rgb(34,197,94)"
            d="m79.609 24.328h3.9492v3.9492h-3.9492z"
        />
        <path
            fill="rgb(34,197,94)"
            d="m79.609 28.281h3.9492v3.9492h-3.9492z"
        />
        <path
            fill="rgb(34,197,94)"
            d="m83.562
        32.23h3.9492v3.9492h-3.9492z"
        />
        <path
            fill="rgb(34,197,94)"
            d="m83.562 36.184h3.9492v3.9492h-3.9492z"
        />
        <path
            fill="rgb(34,197,94)"
            d="m28.27 16.426h3.9492v3.9492h-3.9492z"
        />
        <path
            fill="rgb(34,197,94)"
            d="m51.965
        8.5508h3.9492v3.9492h-3.9492z"
        />
        <path
            fill="rgb(34,197,94)"
            d="m55.914 8.5508h3.9492v3.9492h-3.9492z"
        />
        <path
            fill="rgb(34,197,94)"
            d="m44.074 8.5273h3.9492v3.9492h-3.9492z"
        />
        <path
            fill="rgb(34,197,94)"
            d="m40.109
        8.5273h3.9492v3.9492h-3.9492z"
        />
        <path
            fill="rgb(34,197,94)"
            d="m8.5273 48.035h3.9492v3.9492h-3.9492z"
        />
        <path
            fill="rgb(34,197,94)"
            d="m8.5 52h3.9492v3.9492h-3.9492z"
        />
        <path
            fill="rgb(34,197,94)"
            d="m8.5 55.949h3.9492v3.9492h-3.9492z"
        />
        <path
            fill="rgb(34,197,94)"
            d="m8.5273 44.109h3.9492v3.9492h-3.9492z"
        />
        <path
            fill="rgb(34,197,94)"
            d="m8.5273
        40.133h3.9492v3.9492h-3.9492z"
        />
        <path
            fill="rgb(34,197,94)"
            d="m87.547 48.035h3.9492v3.9492h-3.9492z"
        />
        <path
            fill="rgb(34,197,94)"
            d="m87.523 52h3.9492v3.9492h-3.9492z"
        />
        <path
            fill="rgb(34,197,94)"
            d="m87.523
        55.949h3.9492v3.9492h-3.9492z"
        />
        <path
            fill="rgb(34,197,94)"
            d="m87.547 44.109h3.9492v3.9492h-3.9492z"
        />
        <path
            fill="rgb(34,197,94)"
            d="m87.547 40.133h3.9492v3.9492h-3.9492z"
        />
        <path
            fill="rgb(34,197,94)"
            d="m36.16
        12.477h3.9492v3.9492h-3.9492z"
        />
        <path
            fill="rgb(34,197,94)"
            d="m32.219 12.477h3.9492v3.9492h-3.9492z"
        />
        <path
            fill="rgb(34,197,94)"
            d="m48.035 87.523h3.9492v3.9492h-3.9492z"
        />
        <path
            fill="rgb(34,197,94)"
            d="m36.172
        83.574h3.9492v3.9492h-3.9492z"
        />
        <path
            fill="rgb(34,197,94)"
            d="m32.242 83.574h3.9492v3.9492h-3.9492z"
        />
        <path
            fill="rgb(34,197,94)"
            d="m28.293 79.621h3.9492v3.9492h-3.9492z"
        />
        <path
            fill="rgb(34,197,94)"
            d="m24.363
        79.621h3.9492v3.9492h-3.9492z"
        />
        <path
            fill="rgb(34,197,94)"
            d="m20.367 75.672h3.9492v3.9492h-3.9492z"
        />
        <path
            fill="rgb(34,197,94)"
            d="m71.707 79.621h3.9492v3.9492h-3.9492z"
        />
        <path
            fill="rgb(34,197,94)"
            d="m75.66
        75.672h3.9492v3.9492h-3.9492z"
        />
        <path
            fill="rgb(34,197,94)"
            d="m79.609 71.719h3.9492v3.9492h-3.9492z"
        />
        <path
            fill="rgb(34,197,94)"
            d="m79.609 67.77h3.9492v3.9492h-3.9492z"
        />
        <path
            fill="rgb(34,197,94)"
            d="m83.562
        63.816h3.9492v3.9492h-3.9492z"
        />
        <path
            fill="rgb(34,197,94)"
            d="m83.562 59.914h3.9492v3.9492h-3.9492z"
        />
        <path
            fill="rgb(34,197,94)"
            d="m16.426 71.719h3.9492v3.9492h-3.9492z"
        />
        <path
            fill="rgb(34,197,94)"
            d="m16.426
        67.77h3.9492v3.9492h-3.9492z"
        />
        <path
            fill="rgb(34,197,94)"
            d="m12.488 63.816h3.9492v3.9492h-3.9492z"
        />
        <path
            fill="rgb(34,197,94)"
            d="m12.488 59.867h3.9492v3.9492h-3.9492z"
        />
        <path
            fill="rgb(34,197,94)"
            d="m67.781
        79.621h3.9492v3.9492h-3.9492z"
        />
        <path
            fill="rgb(34,197,94)"
            d="m44.074 87.5h3.9492v3.9492h-3.9492z"
        />
        <path
            fill="rgb(34,197,94)"
            d="m40.121 87.5h3.9492v3.9492h-3.9492z"
        />
        <path
            fill="rgb(34,197,94)"
            d="m51.965
        87.523h3.9492v3.9492h-3.9492z"
        />
        <path
            fill="rgb(34,197,94)"
            d="m55.938 87.523h3.9492v3.9492h-3.9492z"
        />
        <path
            fill="rgb(34,197,94)"
            d="m59.891 83.574h3.9492v3.9492h-3.9492z"
        />
        <path
            fill="rgb(34,197,94)"
            d="m63.828
        83.574h3.9492v3.9492h-3.9492z"
        />
        <path
            fill="rgb(34,197,94)"
            d="m32.254 67.828h3.9492v3.9492h-3.9492z"
        />
        <path
            fill="rgb(34,197,94)"
            d="m40.145 71.754h3.9492v3.9492h-3.9492z"
        />
        <path
            fill="rgb(34,197,94)"
            d="m36.23
        71.754h3.9492v3.9492h-3.9492z"
        />
        <path
            fill="rgb(34,197,94)"
            d="m20.438 51.988h3.9492v3.9492h-3.9492z"
        />
        <path
            fill="rgb(34,197,94)"
            d="m24.398 59.902h3.9492v3.9492h-3.9492z"
        />
        <path
            fill="rgb(34,197,94)"
            d="m24.398
        55.914h3.9492v3.9492h-3.9492z"
        />
        <path
            fill="rgb(34,197,94)"
            d="m71.707 55.914h3.9492v3.9492h-3.9492z"
        />
        <path
            fill="rgb(34,197,94)"
            d="m20.449 48.023h3.9492v3.9492h-3.9492z"
        />
        <path
            fill="rgb(34,197,94)"
            d="m75.66
        48.023h3.9492v3.9492h-3.9492z"
        />
        <path
            fill="rgb(34,197,94)"
            d="m20.438 44.074h3.9492v3.9492h-3.9492z"
        />
        <path
            fill="rgb(34,197,94)"
            d="m44.074 75.707h3.9492v3.9492h-3.9492z"
        />
        <path
            fill="rgb(34,197,94)"
            d="m51.988
        75.707h3.9492v3.9492h-3.9492z"
        />
        <path
            fill="rgb(34,197,94)"
            d="m48.023 75.707h3.9492v3.9492h-3.9492z"
        />
        <path
            fill="rgb(34,197,94)"
            d="m75.66 44.074h3.9492v3.9492h-3.9492z"
        />
        <path
            fill="rgb(34,197,94)"
            d="m75.66
        51.988h3.9492v3.9492h-3.9492z"
        />
        <path
            fill="rgb(34,197,94)"
            d="m59.891 71.707h3.9492v3.9492h-3.9492z"
        />
        <path
            fill="rgb(34,197,94)"
            d="m63.91 67.828h3.9492v3.9492h-3.9492z"
        />
        <path
            fill="rgb(34,197,94)"
            d="m67.863
        63.852h3.9492v3.9492h-3.9492z"
        />
        <path
            fill="rgb(34,197,94)"
            d="m28.305 63.852h3.9492v3.9492h-3.9492z"
        />
        <path
            fill="rgb(34,197,94)"
            d="m55.949 71.707h3.9492v3.9492h-3.9492z"
        />
        <path
            fill="rgb(34,197,94)"
            d="m71.707
        59.902h3.9492v3.9492h-3.9492z"
        />
        <path
            fill="rgb(34,197,94)"
            d="m59.867 24.328h3.9492v3.9492h-3.9492z"
        />
        <path
            fill="rgb(34,197,94)"
            d="m55.891 24.328h3.9492v3.9492h-3.9492z"
        />
        <path
            fill="rgb(34,197,94)"
            d="m67.711
        32.184h3.9492v3.9492h-3.9492z"
        />
        <path
            fill="rgb(34,197,94)"
            d="m63.805 28.281h3.9492v3.9492h-3.9492z"
        />
        <path
            fill="rgb(34,197,94)"
            d="m71.66 36.137h3.9492v3.9492h-3.9492z"
        />
        <path
            fill="rgb(34,197,94)"
            d="m71.66
        40.133h3.9492v3.9492h-3.9492z"
        />
        <path
            fill="rgb(34,197,94)"
            d="m24.398 36.137h3.9492v3.9492h-3.9492z"
        />
        <path
            fill="rgb(34,197,94)"
            d="m24.398 40.086h3.9492v3.9492h-3.9492z"
        />
        <path
            fill="rgb(34,197,94)"
            d="m51.965
        20.379h3.9492v3.9492h-3.9492z"
        />
        <path
            fill="rgb(34,197,94)"
            d="m44.051 20.379h3.9492v3.9492h-3.9492z"
        />
        <path
            fill="rgb(34,197,94)"
            d="m48.012 20.379h3.9492v3.9492h-3.9492z"
        />
        <path
            fill="rgb(34,197,94)"
            d="m36.148
        24.328h3.9492v3.9492h-3.9492z"
        />
        <path
            fill="rgb(34,197,94)"
            d="m40.086 24.328h3.9492v3.9492h-3.9492z"
        />
        <path
            fill="rgb(34,197,94)"
            d="m28.305 32.184h3.9492v3.9492h-3.9492z"
        />
        <path
            fill="rgb(34,197,94)"
            d="m32.219
        28.281h3.9492v3.9492h-3.9492z"
        />
    </g>
</svg>
